# MagicaVoxel @ Ephtracy

# group
g Missile

# material
mtllib Missile.mtl
usemtl palette

# normals
vn -1 0 0
vn 1 0 0
vn 0 0 1
vn 0 0 -1
vn 0 -1 0
vn 0 1 0

# texcoords
vt 0.970703 0.5
vt 0.974609 0.5
vt 0.978516 0.5

# verts
v -3 0 2
v -3 0 1
v -3 0 -1
v -3 0 -2
v -3 2 2
v -3 2 1
v -3 2 -1
v -3 2 -2
v -3 4 2
v -3 4 -2
v -3 5 1
v -3 5 -0
v -3 12 -0
v -3 12 -1
v -3 13 1
v -3 13 -0
v -3 20 -0
v -3 20 -1
v -3 21 2
v -3 21 1
v -3 21 -1
v -3 21 -2
v -3 22 1
v -3 22 -1
v -2 0 3
v -2 0 2
v -2 0 -2
v -2 0 -3
v -2 2 3
v -2 2 2
v -2 2 1
v -2 2 -1
v -2 2 -2
v -2 2 -3
v -2 3 2
v -2 3 -2
v -2 4 3
v -2 4 2
v -2 4 -2
v -2 4 -3
v -2 21 3
v -2 21 2
v -2 21 1
v -2 21 -1
v -2 21 -2
v -2 21 -3
v -2 22 2
v -2 22 1
v -2 22 -1
v -2 22 -2
v -2 23 1
v -2 23 -1
v -1 0 1
v -1 0 -1
v -1 2 1
v -1 2 -1
v -1 21 3
v -1 21 2
v -1 21 -2
v -1 21 -3
v -1 22 3
v -1 22 2
v -1 22 1
v -1 22 -1
v -1 22 -2
v -1 22 -3
v -1 23 2
v -1 23 1
v -1 23 -1
v -1 23 -2
v -1 24 1
v -1 24 -1
v 1 0 3
v 1 0 1
v 1 0 -1
v 1 0 -3
v 1 2 3
v 1 2 2
v 1 2 -1
v 1 2 -2
v 1 2 -3
v 1 3 2
v 1 3 1
v -1 0 3
v -1 0 1
v -1 0 -1
v -1 0 -3
v -1 2 3
v -1 2 2
v -1 2 -1
v -1 2 -2
v -1 2 -3
v -1 3 2
v -1 3 1
v 1 0 1
v 1 0 -1
v 1 2 1
v 1 2 -1
v 1 21 3
v 1 21 2
v 1 21 -2
v 1 21 -3
v 1 22 3
v 1 22 2
v 1 22 1
v 1 22 -1
v 1 22 -2
v 1 22 -3
v 1 23 2
v 1 23 1
v 1 23 -1
v 1 23 -2
v 1 24 1
v 1 24 -1
v 2 0 3
v 2 0 2
v 2 0 -2
v 2 0 -3
v 2 2 3
v 2 2 2
v 2 2 1
v 2 2 -1
v 2 2 -2
v 2 2 -3
v 2 3 2
v 2 3 -2
v 2 4 3
v 2 4 2
v 2 4 -2
v 2 4 -3
v 2 21 3
v 2 21 2
v 2 21 1
v 2 21 -1
v 2 21 -2
v 2 21 -3
v 2 22 2
v 2 22 1
v 2 22 -1
v 2 22 -2
v 2 23 1
v 2 23 -1
v 3 0 2
v 3 0 1
v 3 0 -1
v 3 0 -2
v 3 2 2
v 3 2 1
v 3 2 -1
v 3 2 -2
v 3 4 2
v 3 4 -2
v 3 5 -0
v 3 5 -1
v 3 12 1
v 3 12 -0
v 3 13 -0
v 3 13 -1
v 3 20 1
v 3 20 -0
v 3 21 2
v 3 21 1
v 3 21 -1
v 3 21 -2
v 3 22 1
v 3 22 -1
v -2 0 3
v -2 2 3
v -2 4 3
v -2 21 3
v -1 0 3
v -1 2 3
v -1 12 3
v -1 20 3
v -1 21 3
v -1 22 3
v 0 5 3
v 0 12 3
v 0 13 3
v 0 20 3
v 1 0 3
v 1 2 3
v 1 5 3
v 1 13 3
v 1 21 3
v 1 22 3
v 2 0 3
v 2 2 3
v 2 4 3
v 2 21 3
v -3 0 2
v -3 2 2
v -3 4 2
v -3 21 2
v -2 0 2
v -2 2 2
v -2 3 2
v -2 4 2
v -2 21 2
v -2 22 2
v -1 2 2
v -1 3 2
v -1 21 2
v -1 22 2
v -1 23 2
v 1 2 2
v 1 3 2
v 1 21 2
v 1 22 2
v 1 23 2
v 2 0 2
v 2 2 2
v 2 3 2
v 2 4 2
v 2 21 2
v 2 22 2
v 3 0 2
v 3 2 2
v 3 4 2
v 3 21 2
v -3 21 1
v -3 22 1
v -2 21 1
v -2 22 1
v -2 23 1
v -1 0 1
v -1 3 1
v -1 22 1
v -1 23 1
v -1 24 1
v 1 0 1
v 1 3 1
v 1 22 1
v 1 23 1
v 1 24 1
v 2 21 1
v 2 22 1
v 2 23 1
v 3 21 1
v 3 22 1
v -3 0 -1
v -3 2 -1
v -2 2 -1
v -1 0 -1
v -1 2 -1
v 1 0 -1
v 1 2 -1
v 2 2 -1
v 3 0 -1
v 3 2 -1
v -3 0 1
v -3 2 1
v -2 2 1
v -1 0 1
v -1 2 1
v 1 0 1
v 1 2 1
v 2 2 1
v 3 0 1
v 3 2 1
v -3 21 -1
v -3 22 -1
v -2 21 -1
v -2 22 -1
v -2 23 -1
v -1 0 -1
v -1 2 -1
v -1 22 -1
v -1 23 -1
v -1 24 -1
v 1 0 -1
v 1 2 -1
v 1 22 -1
v 1 23 -1
v 1 24 -1
v 2 21 -1
v 2 22 -1
v 2 23 -1
v 3 21 -1
v 3 22 -1
v -3 0 -2
v -3 2 -2
v -3 4 -2
v -3 21 -2
v -2 0 -2
v -2 2 -2
v -2 3 -2
v -2 4 -2
v -2 21 -2
v -2 22 -2
v -1 2 -2
v -1 21 -2
v -1 22 -2
v -1 23 -2
v 1 2 -2
v 1 21 -2
v 1 22 -2
v 1 23 -2
v 2 0 -2
v 2 2 -2
v 2 3 -2
v 2 4 -2
v 2 21 -2
v 2 22 -2
v 3 0 -2
v 3 2 -2
v 3 4 -2
v 3 21 -2
v -2 0 -3
v -2 2 -3
v -2 4 -3
v -2 21 -3
v -1 0 -3
v -1 2 -3
v -1 5 -3
v -1 13 -3
v -1 21 -3
v -1 22 -3
v 0 5 -3
v 0 12 -3
v 0 13 -3
v 0 20 -3
v 1 0 -3
v 1 2 -3
v 1 12 -3
v 1 20 -3
v 1 21 -3
v 1 22 -3
v 2 0 -3
v 2 2 -3
v 2 4 -3
v 2 21 -3
v -2 0 3
v -1 0 3
v 1 0 3
v 2 0 3
v -3 0 2
v -2 0 2
v 2 0 2
v 3 0 2
v -3 0 1
v -1 0 1
v 1 0 1
v 3 0 1
v -3 0 -1
v -1 0 -1
v 1 0 -1
v 3 0 -1
v -3 0 -2
v -2 0 -2
v 2 0 -2
v 3 0 -2
v -2 0 -3
v -1 0 -3
v 1 0 -3
v 2 0 -3
v -2 2 1
v -1 2 1
v 1 2 1
v 2 2 1
v -2 2 -1
v -1 2 -1
v 1 2 -1
v 2 2 -1
v -1 2 -2
v 1 2 -2
v -1 3 2
v 1 3 2
v -1 3 1
v 1 3 1
v -2 4 3
v 2 4 3
v -3 4 2
v -2 4 2
v 2 4 2
v 3 4 2
v -3 4 -2
v -2 4 -2
v 2 4 -2
v 3 4 -2
v -2 4 -3
v 2 4 -3
v -2 2 3
v -1 2 3
v 1 2 3
v 2 2 3
v -3 2 2
v -2 2 2
v -1 2 2
v 1 2 2
v 2 2 2
v 3 2 2
v -3 2 1
v -2 2 1
v 2 2 1
v 3 2 1
v -3 2 -1
v -2 2 -1
v 2 2 -1
v 3 2 -1
v -3 2 -2
v -2 2 -2
v -1 2 -2
v 1 2 -2
v 2 2 -2
v 3 2 -2
v -2 2 -3
v -1 2 -3
v 1 2 -3
v 2 2 -3
v -2 21 3
v -1 21 3
v 1 21 3
v 2 21 3
v -3 21 2
v -2 21 2
v -1 21 2
v 1 21 2
v 2 21 2
v 3 21 2
v -3 21 1
v -2 21 1
v 2 21 1
v 3 21 1
v -3 21 -1
v -2 21 -1
v 2 21 -1
v 3 21 -1
v -3 21 -2
v -2 21 -2
v -1 21 -2
v 1 21 -2
v 2 21 -2
v 3 21 -2
v -2 21 -3
v -1 21 -3
v 1 21 -3
v 2 21 -3
v -1 22 3
v 1 22 3
v -2 22 2
v -1 22 2
v 1 22 2
v 2 22 2
v -3 22 1
v -2 22 1
v -1 22 1
v 1 22 1
v 2 22 1
v 3 22 1
v -3 22 -1
v -2 22 -1
v -1 22 -1
v 1 22 -1
v 2 22 -1
v 3 22 -1
v -2 22 -2
v -1 22 -2
v 1 22 -2
v 2 22 -2
v -1 22 -3
v 1 22 -3
v -1 23 2
v 1 23 2
v -2 23 1
v -1 23 1
v 1 23 1
v 2 23 1
v -2 23 -1
v -1 23 -1
v 1 23 -1
v 2 23 -1
v -1 23 -2
v 1 23 -2
v -1 24 1
v 1 24 1
v -1 24 -1
v 1 24 -1

# faces
f 5/2/1 2/2/1 1/2/1
f 6/2/1 2/2/1 5/2/1
f 7/2/1 4/2/1 3/2/1
f 8/2/1 4/2/1 7/2/1
f 11/1/1 10/1/1 9/1/1
f 12/1/1 10/1/1 11/1/1
f 13/3/1 12/3/1 11/3/1
f 13/1/1 10/1/1 12/1/1
f 14/1/1 10/1/1 13/1/1
f 15/1/1 11/1/1 9/1/1
f 15/3/1 13/3/1 11/3/1
f 15/3/1 14/3/1 13/3/1
f 16/3/1 14/3/1 15/3/1
f 17/1/1 16/1/1 15/1/1
f 17/3/1 14/3/1 16/3/1
f 18/1/1 10/1/1 14/1/1
f 18/3/1 14/3/1 17/3/1
f 19/1/1 17/1/1 15/1/1
f 19/1/1 15/1/1 9/1/1
f 19/1/1 18/1/1 17/1/1
f 20/1/1 18/1/1 19/1/1
f 21/1/1 10/1/1 18/1/1
f 21/1/1 18/1/1 20/1/1
f 22/1/1 10/1/1 21/1/1
f 23/1/1 21/1/1 20/1/1
f 24/1/1 21/1/1 23/1/1
f 29/2/1 26/2/1 25/2/1
f 30/2/1 26/2/1 29/2/1
f 33/2/1 28/2/1 27/2/1
f 34/2/1 28/2/1 33/2/1
f 35/2/1 32/2/1 31/2/1
f 35/2/1 33/2/1 32/2/1
f 35/2/1 31/2/1 30/2/1
f 36/2/1 33/2/1 35/2/1
f 38/1/1 36/1/1 35/1/1
f 39/1/1 36/1/1 38/1/1
f 41/1/1 38/1/1 37/1/1
f 42/1/1 38/1/1 41/1/1
f 45/1/1 40/1/1 39/1/1
f 46/1/1 40/1/1 45/1/1
f 47/1/1 43/1/1 42/1/1
f 48/1/1 43/1/1 47/1/1
f 49/1/1 45/1/1 44/1/1
f 50/1/1 45/1/1 49/1/1
f 51/1/1 49/1/1 48/1/1
f 52/1/1 49/1/1 51/1/1
f 55/2/1 54/2/1 53/2/1
f 56/2/1 54/2/1 55/2/1
f 61/1/1 58/1/1 57/1/1
f 62/1/1 58/1/1 61/1/1
f 65/1/1 60/1/1 59/1/1
f 66/1/1 60/1/1 65/1/1
f 67/1/1 63/1/1 62/1/1
f 68/1/1 63/1/1 67/1/1
f 69/1/1 65/1/1 64/1/1
f 70/1/1 65/1/1 69/1/1
f 71/1/1 69/1/1 68/1/1
f 72/1/1 69/1/1 71/1/1
f 77/2/1 74/2/1 73/2/1
f 78/2/1 74/2/1 77/2/1
f 79/2/1 76/2/1 75/2/1
f 80/2/1 76/2/1 79/2/1
f 81/2/1 76/2/1 80/2/1
f 82/2/1 74/2/1 78/2/1
f 83/2/1 74/2/1 82/2/1
f 84/2/2 85/2/2 88/2/2
f 88/2/2 85/2/2 89/2/2
f 86/2/2 87/2/2 90/2/2
f 90/2/2 87/2/2 91/2/2
f 91/2/2 87/2/2 92/2/2
f 89/2/2 85/2/2 93/2/2
f 93/2/2 85/2/2 94/2/2
f 95/2/2 96/2/2 97/2/2
f 97/2/2 96/2/2 98/2/2
f 99/1/2 100/1/2 103/1/2
f 103/1/2 100/1/2 104/1/2
f 101/1/2 102/1/2 107/1/2
f 107/1/2 102/1/2 108/1/2
f 104/1/2 105/1/2 109/1/2
f 109/1/2 105/1/2 110/1/2
f 106/1/2 107/1/2 111/1/2
f 111/1/2 107/1/2 112/1/2
f 110/1/2 111/1/2 113/1/2
f 113/1/2 111/1/2 114/1/2
f 115/2/2 116/2/2 119/2/2
f 119/2/2 116/2/2 120/2/2
f 117/2/2 118/2/2 123/2/2
f 123/2/2 118/2/2 124/2/2
f 121/2/2 122/2/2 125/2/2
f 122/2/2 123/2/2 125/2/2
f 120/2/2 121/2/2 125/2/2
f 125/2/2 123/2/2 126/2/2
f 125/1/2 126/1/2 128/1/2
f 128/1/2 126/1/2 129/1/2
f 127/1/2 128/1/2 131/1/2
f 131/1/2 128/1/2 132/1/2
f 129/1/2 130/1/2 135/1/2
f 135/1/2 130/1/2 136/1/2
f 132/1/2 133/1/2 137/1/2
f 137/1/2 133/1/2 138/1/2
f 134/1/2 135/1/2 139/1/2
f 139/1/2 135/1/2 140/1/2
f 138/1/2 139/1/2 141/1/2
f 141/1/2 139/1/2 142/1/2
f 143/2/2 144/2/2 147/2/2
f 147/2/2 144/2/2 148/2/2
f 145/2/2 146/2/2 149/2/2
f 149/2/2 146/2/2 150/2/2
f 151/1/2 152/1/2 153/1/2
f 153/1/2 152/1/2 154/1/2
f 151/1/2 153/1/2 155/1/2
f 153/3/2 154/3/2 156/3/2
f 155/1/2 153/1/2 156/1/2
f 155/3/2 156/3/2 157/3/2
f 156/3/2 154/3/2 157/3/2
f 154/1/2 152/1/2 158/1/2
f 157/3/2 154/3/2 158/3/2
f 155/3/2 157/3/2 159/3/2
f 151/1/2 155/1/2 159/1/2
f 157/1/2 158/1/2 160/1/2
f 159/3/2 157/3/2 160/3/2
f 151/1/2 159/1/2 161/1/2
f 159/1/2 160/1/2 161/1/2
f 161/1/2 160/1/2 162/1/2
f 158/1/2 152/1/2 163/1/2
f 162/1/2 160/1/2 163/1/2
f 160/1/2 158/1/2 163/1/2
f 163/1/2 152/1/2 164/1/2
f 162/1/2 163/1/2 165/1/2
f 165/1/2 163/1/2 166/1/2
f 171/2/3 168/2/3 167/2/3
f 172/2/3 168/2/3 171/2/3
f 173/1/3 170/1/3 169/1/3
f 174/1/3 170/1/3 173/1/3
f 175/1/3 170/1/3 174/1/3
f 177/1/3 173/1/3 169/1/3
f 178/3/3 174/3/3 173/3/3
f 178/1/3 173/1/3 177/1/3
f 179/3/3 174/3/3 178/3/3
f 180/1/3 176/1/3 175/1/3
f 180/3/3 174/3/3 179/3/3
f 180/1/3 175/1/3 174/1/3
f 183/3/3 179/3/3 178/3/3
f 183/3/3 178/3/3 177/3/3
f 183/1/3 177/1/3 169/1/3
f 184/1/3 180/1/3 179/1/3
f 184/3/3 179/3/3 183/3/3
f 185/1/3 176/1/3 180/1/3
f 185/1/3 180/1/3 184/1/3
f 186/1/3 176/1/3 185/1/3
f 187/2/3 182/2/3 181/2/3
f 188/2/3 182/2/3 187/2/3
f 189/1/3 184/1/3 183/1/3
f 189/1/3 183/1/3 169/1/3
f 189/1/3 185/1/3 184/1/3
f 190/1/3 185/1/3 189/1/3
f 195/2/3 192/2/3 191/2/3
f 196/2/3 192/2/3 195/2/3
f 198/1/3 194/1/3 193/1/3
f 199/1/3 194/1/3 198/1/3
f 201/2/3 197/2/3 196/2/3
f 202/1/3 198/1/3 197/1/3
f 202/2/3 197/2/3 201/2/3
f 203/1/3 200/1/3 199/1/3
f 204/1/3 200/1/3 203/1/3
f 207/1/3 198/1/3 202/1/3
f 209/1/3 205/1/3 204/1/3
f 210/1/3 205/1/3 209/1/3
f 212/2/3 207/2/3 206/2/3
f 213/1/3 198/1/3 207/1/3
f 213/2/3 207/2/3 212/2/3
f 214/1/3 198/1/3 213/1/3
f 215/1/3 209/1/3 208/1/3
f 216/1/3 209/1/3 215/1/3
f 217/2/3 212/2/3 211/2/3
f 218/2/3 212/2/3 217/2/3
f 219/1/3 215/1/3 214/1/3
f 220/1/3 215/1/3 219/1/3
f 223/1/3 222/1/3 221/1/3
f 224/1/3 222/1/3 223/1/3
f 228/1/3 225/1/3 224/1/3
f 229/1/3 225/1/3 228/1/3
f 231/2/3 227/2/3 226/2/3
f 232/2/3 227/2/3 231/2/3
f 234/1/3 230/1/3 229/1/3
f 235/1/3 230/1/3 234/1/3
f 237/1/3 234/1/3 233/1/3
f 238/1/3 234/1/3 237/1/3
f 239/1/3 237/1/3 236/1/3
f 240/1/3 237/1/3 239/1/3
f 243/2/3 242/2/3 241/2/3
f 244/2/3 243/2/3 241/2/3
f 245/2/3 243/2/3 244/2/3
f 248/2/3 247/2/3 246/2/3
f 249/2/3 248/2/3 246/2/3
f 250/2/3 248/2/3 249/2/3
f 251/2/4 252/2/4 253/2/4
f 251/2/4 253/2/4 254/2/4
f 254/2/4 253/2/4 255/2/4
f 256/2/4 257/2/4 258/2/4
f 256/2/4 258/2/4 259/2/4
f 259/2/4 258/2/4 260/2/4
f 261/1/4 262/1/4 263/1/4
f 263/1/4 262/1/4 264/1/4
f 264/1/4 265/1/4 268/1/4
f 268/1/4 265/1/4 269/1/4
f 266/2/4 267/2/4 271/2/4
f 271/2/4 267/2/4 272/2/4
f 269/1/4 270/1/4 274/1/4
f 274/1/4 270/1/4 275/1/4
f 273/1/4 274/1/4 277/1/4
f 277/1/4 274/1/4 278/1/4
f 276/1/4 277/1/4 279/1/4
f 279/1/4 277/1/4 280/1/4
f 281/2/4 282/2/4 285/2/4
f 285/2/4 282/2/4 286/2/4
f 283/1/4 284/1/4 288/1/4
f 288/1/4 284/1/4 289/1/4
f 286/2/4 287/2/4 291/2/4
f 289/1/4 290/1/4 292/1/4
f 292/1/4 290/1/4 293/1/4
f 291/2/4 287/2/4 295/2/4
f 293/1/4 294/1/4 297/1/4
f 297/1/4 294/1/4 298/1/4
f 295/2/4 287/2/4 300/2/4
f 287/1/4 288/1/4 301/1/4
f 300/2/4 287/2/4 301/2/4
f 301/1/4 288/1/4 302/1/4
f 296/1/4 297/1/4 303/1/4
f 303/1/4 297/1/4 304/1/4
f 299/2/4 300/2/4 305/2/4
f 305/2/4 300/2/4 306/2/4
f 302/1/4 303/1/4 307/1/4
f 307/1/4 303/1/4 308/1/4
f 309/2/4 310/2/4 313/2/4
f 313/2/4 310/2/4 314/2/4
f 311/1/4 312/1/4 315/1/4
f 315/1/4 312/1/4 316/1/4
f 316/1/4 312/1/4 317/1/4
f 311/1/4 315/1/4 319/1/4
f 315/3/4 316/3/4 319/3/4
f 319/3/4 316/3/4 320/3/4
f 317/1/4 318/1/4 321/1/4
f 320/3/4 316/3/4 321/3/4
f 316/1/4 317/1/4 321/1/4
f 321/1/4 318/1/4 322/1/4
f 319/1/4 320/1/4 325/1/4
f 320/3/4 321/3/4 325/3/4
f 321/3/4 322/3/4 325/3/4
f 322/1/4 318/1/4 326/1/4
f 325/3/4 322/3/4 326/3/4
f 326/1/4 318/1/4 327/1/4
f 327/1/4 318/1/4 328/1/4
f 323/2/4 324/2/4 329/2/4
f 329/2/4 324/2/4 330/2/4
f 311/1/4 319/1/4 331/1/4
f 319/1/4 325/1/4 331/1/4
f 325/1/4 326/1/4 331/1/4
f 326/1/4 327/1/4 331/1/4
f 331/1/4 327/1/4 332/1/4
f 338/2/5 334/2/5 333/2/5
f 339/2/5 336/2/5 335/2/5
f 341/2/5 338/2/5 337/2/5
f 342/2/5 334/2/5 338/2/5
f 342/2/5 338/2/5 341/2/5
f 343/2/5 340/2/5 339/2/5
f 343/2/5 339/2/5 335/2/5
f 344/2/5 340/2/5 343/2/5
f 346/2/5 343/2/5 342/2/5
f 347/2/5 343/2/5 346/2/5
f 349/2/5 346/2/5 345/2/5
f 350/2/5 346/2/5 349/2/5
f 351/2/5 348/2/5 347/2/5
f 352/2/5 348/2/5 351/2/5
f 353/2/5 346/2/5 350/2/5
f 354/2/5 346/2/5 353/2/5
f 355/2/5 351/2/5 347/2/5
f 356/2/5 351/2/5 355/2/5
f 361/2/5 358/2/5 357/2/5
f 362/2/5 358/2/5 361/2/5
f 363/2/5 360/2/5 359/2/5
f 364/2/5 360/2/5 363/2/5
f 365/2/5 363/2/5 362/2/5
f 366/2/5 363/2/5 365/2/5
f 369/1/5 368/1/5 367/1/5
f 370/1/5 368/1/5 369/1/5
f 374/1/5 372/1/5 371/1/5
f 375/1/5 372/1/5 374/1/5
f 377/1/5 374/1/5 373/1/5
f 378/1/5 374/1/5 377/1/5
f 379/1/5 376/1/5 375/1/5
f 380/1/5 376/1/5 379/1/5
f 381/1/5 379/1/5 378/1/5
f 382/1/5 379/1/5 381/1/5
f 383/2/6 384/2/6 388/2/6
f 388/2/6 384/2/6 389/2/6
f 385/2/6 386/2/6 390/2/6
f 390/2/6 386/2/6 391/2/6
f 387/2/6 388/2/6 393/2/6
f 393/2/6 388/2/6 394/2/6
f 391/2/6 392/2/6 395/2/6
f 395/2/6 392/2/6 396/2/6
f 397/2/6 398/2/6 401/2/6
f 401/2/6 398/2/6 402/2/6
f 399/2/6 400/2/6 405/2/6
f 405/2/6 400/2/6 406/2/6
f 402/2/6 403/2/6 407/2/6
f 407/2/6 403/2/6 408/2/6
f 404/2/6 405/2/6 409/2/6
f 409/2/6 405/2/6 410/2/6
f 411/1/6 412/1/6 416/1/6
f 416/1/6 412/1/6 417/1/6
f 413/1/6 414/1/6 418/1/6
f 418/1/6 414/1/6 419/1/6
f 415/1/6 416/1/6 421/1/6
f 421/1/6 416/1/6 422/1/6
f 419/1/6 420/1/6 423/1/6
f 423/1/6 420/1/6 424/1/6
f 425/1/6 426/1/6 429/1/6
f 429/1/6 426/1/6 430/1/6
f 427/1/6 428/1/6 433/1/6
f 433/1/6 428/1/6 434/1/6
f 430/1/6 431/1/6 435/1/6
f 435/1/6 431/1/6 436/1/6
f 432/1/6 433/1/6 437/1/6
f 437/1/6 433/1/6 438/1/6
f 439/1/6 440/1/6 442/1/6
f 442/1/6 440/1/6 443/1/6
f 441/1/6 442/1/6 446/1/6
f 446/1/6 442/1/6 447/1/6
f 443/1/6 444/1/6 448/1/6
f 448/1/6 444/1/6 449/1/6
f 445/1/6 446/1/6 451/1/6
f 451/1/6 446/1/6 452/1/6
f 449/1/6 450/1/6 455/1/6
f 455/1/6 450/1/6 456/1/6
f 452/1/6 453/1/6 457/1/6
f 457/1/6 453/1/6 458/1/6
f 454/1/6 455/1/6 459/1/6
f 459/1/6 455/1/6 460/1/6
f 458/1/6 459/1/6 461/1/6
f 461/1/6 459/1/6 462/1/6
f 463/1/6 464/1/6 466/1/6
f 466/1/6 464/1/6 467/1/6
f 465/1/6 466/1/6 469/1/6
f 469/1/6 466/1/6 470/1/6
f 467/1/6 468/1/6 471/1/6
f 471/1/6 468/1/6 472/1/6
f 470/1/6 471/1/6 473/1/6
f 473/1/6 471/1/6 474/1/6
f 475/1/6 476/1/6 477/1/6
f 477/1/6 476/1/6 478/1/6
